<svg height="512pt" viewBox="0 -1 512 511" width="512pt" xmlns="http://www.w3.org/2000/svg"><path d="m512 75.894531h-395.695312l-9.308594-61.105469h-63.519532l-14.253906-14.289062-29.222656 29.289062 29.222656 29.296876 14.253906-14.296876h37.820313l43.195313 283.652344c-27.523438 7.53125-47.820313 32.800782-47.820313 62.75v83.878906h103.625c6.382813 20.46875 25.464844 35.363282 47.957031 35.363282 22.492188 0 41.578125-14.894532 47.960938-35.363282h36.808594c6.382812 20.46875 25.46875 35.363282 47.960937 35.363282 27.699219 0 50.234375-22.59375 50.234375-50.363282 0-27.765624-22.535156-50.359374-50.234375-50.359374-22.492187 0-41.578125 14.894531-47.960937 35.359374h-36.808594c-6.382813-20.464843-25.46875-35.359374-47.960938-35.359374-22.492187 0-41.574218 14.894531-47.957031 35.359374h-73.699219v-53.878906c0-19.328125 15.683594-35.050781 34.960938-35.050781h159.222656c18.480469 21.226563 45.65625 34.660156 75.902344 34.660156 55.554687 0 100.75-45.308593 100.75-101 0-18.425781-4.953125-35.714843-13.585938-50.601562zm-151.015625 363.816407c11.199219 0 20.3125 9.132812 20.3125 20.359374 0 11.230469-9.113281 20.363282-20.3125 20.363282s-20.3125-9.132813-20.3125-20.363282c0-11.226562 9.113281-20.359374 20.3125-20.359374zm-132.730469 0c11.199219 0 20.3125 9.132812 20.3125 20.359374 0 11.230469-9.113281 20.363282-20.3125 20.363282-11.199218 0-20.308594-9.132813-20.308594-20.363282 0-11.226562 9.109376-20.359374 20.308594-20.359374zm59.226563-196.808594h-145.742188l-8.074219-53.003906h228.199219c-32.332031 4.800781-59.703125 25.050781-74.382812 53.003906zm104.027343-53.003906h55.671876l-6.476563 21.96875c-13.808594-11.417969-30.691406-19.222657-49.195313-21.96875zm80.441407-84.003907-15.921875 54.003907h-326.929688l-8.226562-54.003907zm-317.535157 220.246094-8.109374-53.238281h131.050781c-.929688 5.5-1.417969 11.144531-1.417969 16.898437 0 12.804688 2.394531 25.058594 6.75 36.339844zm222.269532 34.660156c-39.050782 0-70.820313-31.851562-70.820313-71 0-39.148437 31.769531-71 70.820313-71 39.054687 0 70.824218 31.851563 70.824218 71 0 39.148438-31.769531 71-70.824218 71zm0 0"/><path d="m368.757812 290.8125-16.449218-11.949219-17.554688 24.296875 39.519532 28.703125 46.433593-58.027343-23.34375-18.773438zm0 0"/></svg>