<?xml version="1.0"?>
<svg xmlns="http://www.w3.org/2000/svg" id="Layer_1" data-name="Layer 1" viewBox="0 0 512 512" width="512" height="512"><title>Indian Rupee</title><path d="M256,414.891c87.613,0,158.891-71.278,158.891-158.891S343.613,97.109,256,97.109,97.109,168.387,97.109,256,168.387,414.891,256,414.891Zm0-305.782c81,0,146.891,65.9,146.891,146.891S337,402.891,256,402.891,109.109,337,109.109,256,175,109.109,256,109.109Z"/><path d="M235.684,258.59l-.379,0-27.192-.292a6,6,0,0,0-4.232,10.316l67.275,64.952a6,6,0,1,0,8.335-8.632l-56.422-54.475,12.108.13.508,0a46.837,46.837,0,0,0,46.3-40.278l21.462.23h.066a6,6,0,0,0,.063-12l-21.462-.23a46.713,46.713,0,0,0-14.825-28.935l36.6.393h.065a6,6,0,0,0,.064-12l-67.836-.728h0l-27.192-.292a6,6,0,0,0-.129,12l27.192.292a34.824,34.824,0,0,1,33.935,29.14l-61.436-.659h-.065a6,6,0,0,0-.063,12l61.435.659A34.822,34.822,0,0,1,235.684,258.59Z"/></svg>
