<svg xmlns="http://www.w3.org/2000/svg" width="14" height="15.409" viewBox="0 0 14 15.409">
  <g id="Group_9" data-name="Group 9" transform="translate(0 0)">
    <path id="Path_5" data-name="Path 5" d="M24.129,1.981a.388.388,0,0,0-.547,0,.382.382,0,0,0,0,.547l.923.929a.387.387,0,0,0,.275.114h0a.385.385,0,0,0,.272-.114L27.858.66a.385.385,0,1,0-.543-.547l-.85.844a2.423,2.423,0,1,0,.581,2.389.388.388,0,0,0-.742-.224,1.654,1.654,0,1,1-.389-1.615L24.78,2.635Z" transform="translate(-22.3 0)"/>
    <path id="Path_6" data-name="Path 6" d="M24.723,170.6a2.423,2.423,0,1,0,2.423,2.423A2.426,2.426,0,0,0,24.723,170.6Zm0,4.073a1.649,1.649,0,1,1,1.649-1.649A1.65,1.65,0,0,1,24.723,174.673Z" transform="translate(-22.3 -165.21)"/>
    <path id="Path_7" data-name="Path 7" d="M27.147,336.723a2.423,2.423,0,1,0-2.423,2.423A2.426,2.426,0,0,0,27.147,336.723Zm-2.423,1.652a1.649,1.649,0,1,1,1.649-1.649A1.65,1.65,0,0,1,24.723,338.376Z" transform="translate(-22.3 -323.738)"/>
    <path id="Path_8" data-name="Path 8" d="M210.418,235h-7.529a.389.389,0,0,0,0,.777h7.529a.389.389,0,0,0,0-.777Z" transform="translate(-196.806 -227.575)"/>
    <path id="Path_9" data-name="Path 9" d="M210.418,71.5h-7.529a.389.389,0,0,0,0,.777h7.529a.389.389,0,0,0,0-.777Z" transform="translate(-196.806 -69.241)"/>
    <path id="Path_10" data-name="Path 10" d="M210.418,398.8h-7.529a.389.389,0,1,0,0,.777h7.529a.389.389,0,1,0,0-.777Z" transform="translate(-196.806 -386.2)"/>
  </g>
</svg>
