<svg xmlns="http://www.w3.org/2000/svg" width="15" height="16.698" viewBox="0 0 15 16.698">
  <g id="Group_443" data-name="Group 443" transform="translate(0 0.001)">
    <g id="Group_442" data-name="Group 442" transform="translate(0 0)">
      <path id="Path_2554" data-name="Path 2554" d="M38.87,12.361a3.4,3.4,0,0,0-1.848-2.145V3.962a.283.283,0,0,0-.139-.244L30.657.04a.283.283,0,0,0-.288,0L24.143,3.719c-.006,0-.01.008-.016.012l-.017.013a.279.279,0,0,0-.063.069s0,0,0,.005v0a.283.283,0,0,0-.032.093.251.251,0,0,1,0,.025.247.247,0,0,0,0,.025V11.32a.283.283,0,0,0,.139.244l6.226,3.679.023.01.024.01a.252.252,0,0,0,.195,0l.024-.01c.007,0,.015-.005.023-.01l1.69-1a3.395,3.395,0,0,0,6.523-1.883ZM30.513.612l1.472.87L29.8,2.771a.283.283,0,0,0,.288.488l2.451-1.447,1.472.87-5.67,3.349-1.472-.87,2.371-1.4a.283.283,0,1,0-.288-.488l-2.639,1.56-1.472-.87ZM28.06,6.521v1.89L26.6,7.547V5.657Zm4.263,5.906a3.448,3.448,0,0,0-.093,1.229L30.8,14.5v-.919a.283.283,0,1,0-.566,0V14.5l-5.66-3.345v-6.7l1.462.864V7.708a.283.283,0,0,0,.139.244L28.2,9.15a.283.283,0,0,0,.427-.244V6.855l1.6.948v4.649a.283.283,0,0,0,.566,0V7.8l5.129-3.031a.283.283,0,0,0-.288-.487L30.513,7.313,28.9,6.359l5.67-3.35,1.887,1.115v5.895A3.382,3.382,0,0,0,32.323,12.427Zm3.284,3.7a2.83,2.83,0,1,1,2.83-2.83A2.83,2.83,0,0,1,35.607,16.132Z" transform="translate(-24.004 0)"/>
    </g>
  </g>
</svg>
